# xmcd
#
# Track frame offsets: 
#        150
#        36029
#        66167
#        92030
#        104477
#        130756
#        153478
#        179834
#        209757
#        228197
#        247691
#        266352
#        292339
#
# Disc length: 4492 seconds
#
# Revision: 3
# Processed by: cddbd v1.5.2PL0 Copyright (c) Steve Scherf et al.
# Submitted via: ExactAudioCopy v0.99pb4
#
DISCID=be118a0d
DTITLE=Eric Dolphy - 75th Birthday Celebration [CD1)
DYEAR=2003
DGENRE=Jazz
TTITLE0=G. W.
TTITLE1=Left Alone
TTITLE2=Green Dolphin Street
TTITLE3=Eclipse
TTITLE4=The Drive
TTITLE5=Feather
TTITLE6=Sunday Go Meetin'
TTITLE7=Serene
TTITLE8=Lautir
TTITLE9=Tenderly
TTITLE10=April Fool
TTITLE11=Images
TTITLE12=Ralph's New Blues
EXTD=YEAR: 2003
EXTT0=
EXTT1=
EXTT2=
EXTT3=
EXTT4=
EXTT5=
EXTT6=
EXTT7=
EXTT8=
EXTT9=
EXTT10=
EXTT11=
EXTT12=
PLAYORDER=
